<?xml version="1.0" encoding="UTF-8" standalone="no"?>
<svg
   xmlns:dc="http://purl.org/dc/elements/1.1/"
   xmlns:cc="http://creativecommons.org/ns#"
   xmlns:rdf="http://www.w3.org/1999/02/22-rdf-syntax-ns#"
   xmlns:svg="http://www.w3.org/2000/svg"
   xmlns="http://www.w3.org/2000/svg"
   xmlns:sodipodi="http://sodipodi.sourceforge.net/DTD/sodipodi-0.dtd"
   xmlns:inkscape="http://www.inkscape.org/namespaces/inkscape"
   viewBox="0 0 281 156.03"
   version="1.1"
   id="svg16"
   sodipodi:docname="logo_vera.svg"
   inkscape:version="1.0.2-2 (e86c870879, 2021-01-15)">
  <metadata
     id="metadata20">
    <rdf:RDF>
      <cc:Work
         rdf:about="">
        <dc:format>image/svg+xml</dc:format>
        <dc:type
           rdf:resource="http://purl.org/dc/dcmitype/StillImage" />
      </cc:Work>
    </rdf:RDF>
  </metadata>
  <sodipodi:namedview
     pagecolor="#ffffff"
     bordercolor="#666666"
     borderopacity="1"
     objecttolerance="10"
     gridtolerance="10"
     guidetolerance="10"
     inkscape:pageopacity="0"
     inkscape:pageshadow="2"
     inkscape:window-width="1920"
     inkscape:window-height="1051"
     id="namedview18"
     showgrid="false"
     inkscape:snap-bbox="true"
     inkscape:bbox-paths="true"
     inkscape:snap-bbox-edge-midpoints="true"
     inkscape:bbox-nodes="true"
     inkscape:snap-bbox-midpoints="true"
     inkscape:object-paths="true"
     inkscape:snap-intersection-paths="true"
     inkscape:snap-smooth-nodes="true"
     inkscape:snap-midpoints="true"
     inkscape:snap-object-midpoints="true"
     inkscape:snap-center="true"
     showguides="true"
     inkscape:guide-bbox="true"
     inkscape:zoom="0.99701015"
     inkscape:cx="85.51972"
     inkscape:cy="45.522467"
     inkscape:window-x="-9"
     inkscape:window-y="-9"
     inkscape:window-maximized="1"
     inkscape:current-layer="svg16">
    <sodipodi:guide
       position="37.274342,0.02999878"
       orientation="1,0"
       id="guide867" />
    <sodipodi:guide
       position="318.2744,0.02999878"
       orientation="1,0"
       id="guide869" />
  </sodipodi:namedview>
  <defs
     id="defs4">
    <inkscape:perspective
       sodipodi:type="inkscape:persp3d"
       inkscape:vp_x="0 : 78.015 : 1"
       inkscape:vp_y="0 : 1000 : 0"
       inkscape:vp_z="281 : 78.015 : 1"
       inkscape:persp3d-origin="140.5 : 52.01 : 1"
       id="perspective859" />
    <style
       id="style2">.cls-1{fill:#f39220;}</style>
  </defs>
  <g
     id="Camada_2"
     data-name="Camada 2"
     style="fill:#f2f2f4;fill-opacity:1"
     transform="translate(37.273728)">
    <g
       id="Camada_2-2"
       data-name="Camada 2"
       style="fill:#f2f2f4;fill-opacity:1">
      <path
         class="cls-1"
         d="M 43.25,56.31 138,152 138.11,16.63 A 136.73,136.73 0 0 0 43.21,56.27 Z M 123.71,81.2 A 11.31,11.31 0 1 1 112.4,92.51 v 0 A 11.3,11.3 0 0 1 123.69,81.2 Z M 106.41,66.9 A 14.3,14.3 0 1 1 92.11,52.6 v 0 a 14.29,14.29 0 0 1 14.29,14.27 z"
         id="path6"
         style="fill:#f2f2f4;fill-opacity:1" />
      <path
         class="cls-1"
         d="m 270.78,104 a 136,136 0 0 0 -29.2,-44.13 l -60.24,60.83 a 14,14 0 1 1 -18.75,18.94 L 146.32,156 H 281 a 137.33,137.33 0 0 0 -10.22,-52 z m -34,40.4 a 11.31,11.31 0 1 1 11.31,-11.31 v 0 a 11.31,11.31 0 0 1 -11.31,11.31 z"
         id="path8"
         style="fill:#f2f2f4;fill-opacity:1" />
      <path
         class="cls-1"
         d="M 82.47,103.78 A 15.3,15.3 0 1 1 67.16,88.49 h 0.69 L 39.46,59.83 A 136.62,136.62 0 0 0 0,156 h 71 a 11.3,11.3 0 1 1 13.62,0 H 134.7 L 82.45,103.25 c 0.01,0.18 0.02,0.36 0.02,0.53 z"
         id="path10"
         style="fill:#f2f2f4;fill-opacity:1" />
      <path
         class="cls-1"
         d="M 177.56,107.2 A 15.3,15.3 0 1 1 196.29,88.28 L 244.45,39.64 A 136.79,136.79 0 0 0 149.45,0 l 0.19,135.37 z m -11.29,-72 a 11.35,11.35 0 1 0 0,0.08 z"
         id="path12"
         style="fill:#f2f2f4;fill-opacity:1" />
    </g>
  </g>
  <text
     xml:space="preserve"
     style="font-style:normal;font-weight:normal;font-size:122.133px;line-height:1.15;font-family:sans-serif;fill:#f2f2f4;fill-opacity:1;stroke:none;stroke-width:1.52667"
     x="-38.61282"
     y="245.05132"
     id="text863"><tspan
       sodipodi:role="line"
       id="tspan861"
       x="-38.61282"
       y="245.05132"
       style="font-style:normal;font-variant:normal;font-weight:normal;font-stretch:normal;font-size:122.133px;font-family:Gabriola;-inkscape-font-specification:Gabriola;fill:#f2f2f4;fill-opacity:1;stroke-width:1.52667">Vera Napoli</tspan></text>
</svg>
