<svg xmlns="http://www.w3.org/2000/svg" viewBox="0 0 124.22 188.56"><defs><style>.cls-1{fill:#f2f2f4;}</style></defs><g id="Camada_2" data-name="Camada 2"><g id="Camada_1-2" data-name="Camada 1"><rect class="cls-1" x="56.1" width="21.89" height="14.27"/><rect class="cls-1" x="92.92" y="68.07" width="15.79" height="9.15"/><path class="cls-1" d="M93.54,78.52a1.43,1.43,0,0,0,0,2c1.21.82.85,5,0,6-4.9,5.79-14,8.37-15.61,26.27-1.73,19.51,1.81,26.32-.28,48.21-1.54,16,4.43,23.56,9,26.41,2,1.25,9.46,1.07,9.46,1.07h9.31s7.42.18,9.45-1.07c4.63-2.85,10.59-10.39,9.06-26.41-2.1-21.89,1.44-28.7-.29-48.21C122.1,95,113,92.38,108.08,86.59c-.85-1-1.21-5.22,0-6a1.43,1.43,0,0,0,0-2h-7.54"/><path class="cls-1" d="M49.15,119.58l.26,49.22v15.41a5.79,5.79,0,0,1-2.33,1.7l.4.29c2.83,2,13.11,1.68,13.11,1.68H73.5a47.1,47.1,0,0,0,8.24-.69c-4.57-3-8.6-10.42-7.09-26.12,2.09-21.89-1.45-28.7.28-48.21C76.52,95,85.54,91,90.44,85.19c.85-1,1.31-3.82.1-4.64a1.43,1.43,0,0,1,0-2l-.62-1.3V65.09h8.67C96,38.78,83.77,37.71,77.13,28.89c-1.19-1.58-1.69-8.15,0-9.43.81-.61.74-2.74,0-3.16H57c-.74.42-.8,2.55,0,3.16,1.69,1.28,1.19,7.85,0,9.43-6.79,9-19.42,13-21.63,41-1.47,18.72-.18,28,.35,41.77H48.8v3.65"/><path class="cls-1" d="M46.15,119.58c0-2.85-3.09-3.53-3.09-3.53l.26-.78H45.8v-1.65H.61v1.65H3.09l.26.78s-3.09.68-3.09,3.53L0,168.8v15.41s2,3,9.35,3l.16,0v0H36.9v0l.16,0c7.4,0,9.35-3,9.35-3V168.8Z"/></g></g></svg>