<svg xmlns="http://www.w3.org/2000/svg" viewBox="0 0 158.15 177.56"><defs><style>.cls-1{fill:#f2f2f4;}</style></defs><g id="Camada_2" data-name="Camada 2"><g id="Camada_1-2" data-name="Camada 1"><path class="cls-1" d="M25.47,88.69A12,12,0,1,1,46.3,96.87H73.94L21.66,44.59A74,74,0,0,0,0,96.87H28.7A11.93,11.93,0,0,1,25.47,88.69Z"/><path class="cls-1" d="M84.21,100.69,109.56,126a16.43,16.43,0,1,1,23.21,23.21l3.72,3.72a74,74,0,0,0,21.66-52.28Z"/><path class="cls-1" d="M152.22,68.58a74,74,0,0,0-16-24L83.91,96.87h73.94A73.83,73.83,0,0,0,152.22,68.58Zm-37,22.17a10,10,0,1,1,10-10A10,10,0,0,1,115.25,90.75Z"/><path class="cls-1" d="M53.64,127.14h.58a16.43,16.43,0,1,1-16.43,16.43c0-.2,0-.39,0-.58L24.88,155.9a74,74,0,0,0,52.29,21.66V103.62Z"/><path class="cls-1" d="M48.58,25.63a73.85,73.85,0,0,0-24,16L40.36,57.43A14.48,14.48,0,0,1,40.14,55,14.09,14.09,0,1,1,54.22,69a13.43,13.43,0,0,1-2.47-.22L76.87,93.94V20A73.83,73.83,0,0,0,48.58,25.63Z"/><path class="cls-1" d="M.29,100.69A74,74,0,0,0,22,153l52.28-52.28Zm26.94,26.44a8.81,8.81,0,1,1,8.8-8.8A8.8,8.8,0,0,1,27.23,127.13Z"/><path class="cls-1" d="M120.7,5.63A73.88,73.88,0,0,0,92.4,0V73.94l52.29-52.28A73.85,73.85,0,0,0,120.7,5.63ZM99.1,49A5.87,5.87,0,1,1,105,43.17,5.86,5.86,0,0,1,99.1,49ZM121.4,37.3a8.22,8.22,0,1,1,8.21-8.22A8.22,8.22,0,0,1,121.4,37.3Z"/><path class="cls-1" d="M121.71,153.54a16.44,16.44,0,0,1-14.56-24L96.78,119.13a6.1,6.1,0,1,1-4-4L81.27,103.62v73.94a74,74,0,0,0,52.29-21.66l-4.24-4.23A16.38,16.38,0,0,1,121.71,153.54Z"/></g></g></svg>