<svg xmlns="http://www.w3.org/2000/svg" viewBox="0 0 157.06 152.35"><defs><style>.cls-1{fill:#f2f2f4;}.cls-2{fill:none;stroke:#f2f2f4;stroke-miterlimit:10;stroke-width:2px;}</style></defs><g id="Camada_2" data-name="Camada 2"><g id="Camada_1-2" data-name="Camada 1"><path class="cls-1" d="M109.27,21.77a103.63,103.63,0,0,1,40.17,6.55L157.06,8A125.38,125.38,0,0,0,108.52.08,126.81,126.81,0,0,0,60.67,11.3l9,19.75A104.87,104.87,0,0,1,109.27,21.77Z"/><path class="cls-2" d="M71.39,34.85,87.7,70.72a11.67,11.67,0,0,1,2.09-1.22,11.88,11.88,0,1,1,9.84,21.63,12.38,12.38,0,0,1-2.29.78L112.84,126,148,32.23a100.33,100.33,0,0,0-76.59,2.62ZM127.87,47a14.84,14.84,0,1,1-19.65-7.36A14.83,14.83,0,0,1,127.87,47Z"/><path class="cls-1" d="M41.76,79.4a103.89,103.89,0,0,1,33-23.77l-9-19.76A126.19,126.19,0,0,0,0,106.36L20.32,114A104.82,104.82,0,0,1,41.76,79.4Z"/><path class="cls-2" d="M44.81,82.25a100.76,100.76,0,0,0-20.58,33.19l36.9,13.82c.12-.78,21.5,9,21.79,8.17L118,150.57,76.53,59.43A99.62,99.62,0,0,0,44.81,82.25Zm17.53,40a12.86,12.86,0,1,1,6.38-17A12.86,12.86,0,0,1,62.34,122.23Zm29.22,4.54a5.43,5.43,0,1,1,2.7-7.19A5.42,5.42,0,0,1,91.56,126.77Zm-15.71-38a6.88,6.88,0,1,1,3.41-9.11A6.89,6.89,0,0,1,75.85,88.72Z"/></g></g></svg>