<svg xmlns="http://www.w3.org/2000/svg" viewBox="0 0 175.67 157.99"><defs><style>.cls-1{fill:#f2f2f4;}</style></defs><g id="Camada_2" data-name="Camada 2"><g id="Camada_1-2" data-name="Camada 1"><path class="cls-1" d="M73,7.25l43.08,127.61L175.67,13.29A136.7,136.7,0,0,0,73,7.23ZM134.34,65a11.31,11.31,0,1,1-15.13,5.19h0A11.3,11.3,0,0,1,134.32,65Zm-9.45-21a14.3,14.3,0,1,1-6.57-19.13h0A14.27,14.27,0,0,1,124.9,44Z"/><path class="cls-1" d="M92.68,91.25A14.62,14.62,0,1,1,86,71.71h0l.58.29L74.21,35.5A130.48,130.48,0,0,0,0,101.49l60.92,29.78A10.79,10.79,0,1,1,75.42,136a10.35,10.35,0,0,1-2.82,1l43,21L92.88,90.79C92.81,91,92.75,91.1,92.68,91.25Z"/></g></g></svg>