<svg xmlns="http://www.w3.org/2000/svg" viewBox="0 0 158 173.41"><defs><style>.cls-1{fill:#f2f2f4;}</style></defs><g id="Camada_2" data-name="Camada 2"><g id="Camada_1-2" data-name="Camada 1"><path class="cls-1" d="M109.21,96.61a6.47,6.47,0,1,1-7.81,0H84.13L112,124.51a9.09,9.09,0,1,1,9.24,9.23l15.1,15.11A73.84,73.84,0,0,0,158,96.61Zm27,19a4,4,0,1,1,4-4A4,4,0,0,1,136.24,115.57Z"/><path class="cls-1" d="M28.77,86A9.09,9.09,0,1,1,43.83,92.8h30L21.64,40.57A73.79,73.79,0,0,0,0,92.8H31.88A9,9,0,0,1,28.77,86ZM18.4,89.78a4,4,0,1,1,4-4A4,4,0,0,1,18.4,89.78ZM19.69,66a6.47,6.47,0,1,1,6.47,6.46A6.47,6.47,0,0,1,19.69,66Z"/><path class="cls-1" d="M68.92,167.16a9.09,9.09,0,1,1,8.17-13V99.54l-8.19,8.2a9.08,9.08,0,0,1-12.79,12.79L24.86,151.78a73.89,73.89,0,0,0,52.23,21.63V162A9.07,9.07,0,0,1,68.92,167.16Zm-20-17a4,4,0,1,1,4-4A4,4,0,0,1,48.89,150.16Zm14.65-21.45a4,4,0,1,1-4,4A4,4,0,0,1,63.54,128.71Z"/><path class="cls-1" d="M48.53,21.62a74,74,0,0,0-24,16L76.8,89.87V16A73.91,73.91,0,0,0,48.53,21.62Zm-6.87,19.2a9.09,9.09,0,1,1,9.09,9.09A9.08,9.08,0,0,1,41.66,40.82ZM60,59.29a4,4,0,1,1,4-4A4,4,0,0,1,60,59.29Zm4.22-22.16a4,4,0,1,1,4,4A4,4,0,0,1,64.25,37.13ZM70,66.91a4,4,0,1,1,4-4A4,4,0,0,1,70,66.91Z"/><path class="cls-1" d="M105.21,47.1a9.08,9.08,0,0,1,15.24-6.68l18.78-18.78A73.79,73.79,0,0,0,87,0V73.87l20.62-20.62A9,9,0,0,1,105.21,47.1ZM92.5,61.46a4,4,0,1,1,4-4A4,4,0,0,1,92.5,61.46ZM96.61,38a4,4,0,1,1,4-4A4,4,0,0,1,96.61,38Zm.12-22a6.47,6.47,0,1,1,6.46,6.47A6.46,6.46,0,0,1,96.73,16Z"/><path class="cls-1" d="M81.2,99.54v73.87a73.84,73.84,0,0,0,52.23-21.63Zm11.66,54.73a4,4,0,1,1,4-4A4,4,0,0,1,92.86,154.27Zm2.48-17.91a6.47,6.47,0,1,1,6.46-6.46A6.47,6.47,0,0,1,95.34,136.36Zm13.93,17.91a4,4,0,1,1,4-4A4,4,0,0,1,109.27,154.27Z"/><path class="cls-1" d="M152.08,64.53a73.82,73.82,0,0,0-16-24L116.71,59.93A9.07,9.07,0,0,1,105,71.61L83.84,92.8h73.87A73.73,73.73,0,0,0,152.08,64.53Zm-38.7,21.14a4,4,0,1,1,4-4A4,4,0,0,1,113.38,85.67Zm25.34,2.62a6.47,6.47,0,1,1,6.47-6.47A6.47,6.47,0,0,1,138.72,88.29Z"/><path class="cls-1" d="M51,112.35a9.08,9.08,0,0,1,14.6-7.22l8.52-8.52H.29a74,74,0,0,0,21.64,52.24l31-31A9.05,9.05,0,0,1,51,112.35Zm-26,24a6.47,6.47,0,1,1,6.46-6.46A6.47,6.47,0,0,1,25,136.36Zm3.79-18.45a6.47,6.47,0,1,1,6.46-6.46A6.46,6.46,0,0,1,28.78,117.91Zm16-5.86a4,4,0,1,1,4-4A4,4,0,0,1,44.78,112.05Z"/></g></g></svg>