<svg xmlns="http://www.w3.org/2000/svg" viewBox="0 0 157.9 171.02"><defs><style>.cls-1{fill:#f2f2f4;}</style></defs><g id="Camada_2" data-name="Camada 2"><g id="Camada_1-2" data-name="Camada 1"><path class="cls-1" d="M148.67,90.42h8.93A73.94,73.94,0,0,0,136,38.12l-6.42,6.43A69.82,69.82,0,0,1,148.67,90.42Z"/><path class="cls-1" d="M31.9,90.52a9.09,9.09,0,1,1,15-6.9,8.93,8.93,0,0,1-3.1,6.8h30L31.06,47.68A65.51,65.51,0,0,0,23.2,57.81a6.5,6.5,0,1,1-3.57,6.42,65.1,65.1,0,0,0-6.42,26.29ZM18.3,79.42a4,4,0,1,1-4,4A4,4,0,0,1,18.3,79.42Z"/><path class="cls-1" d="M123.94,140,81.1,97.12v61a65.25,65.25,0,0,0,26.35-6.6,4,4,0,1,1,5.75-3.58c0,.15,0,.28,0,.42A65.91,65.91,0,0,0,123.94,140ZM92.8,151.92a4,4,0,1,1,4-4A4.08,4.08,0,0,1,92.8,151.92ZM95.2,134a6.5,6.5,0,1,1,6.5-6.5A6.49,6.49,0,0,1,95.2,134Z"/><path class="cls-1" d="M27.47,133.49q1.62,2,3.41,3.95L52.7,115.62a10.34,10.34,0,0,1-1.8-5.6,9.13,9.13,0,0,1,9.1-9.1,8.73,8.73,0,0,1,5.5,1.9l8.5-8.5H13.2a65.26,65.26,0,0,0,7.29,28.44,6.49,6.49,0,0,1,10.91,4.76A6.65,6.65,0,0,1,27.47,133.49ZM44.7,101.72a4,4,0,1,1-4,4A4,4,0,0,1,44.7,101.72Zm-16,13.8a6.5,6.5,0,1,1,6.5-6.5A6.49,6.49,0,0,1,28.7,115.52Z"/><path class="cls-1" d="M138.6,72.92a6.39,6.39,0,0,1,2.73.61,65.37,65.37,0,0,0-15-25.76l-9.76,9.75a8.66,8.66,0,0,1,.6,3.2,9.13,9.13,0,0,1-9.1,9.1,8.66,8.66,0,0,1-3.2-.6L83.7,90.42h60.42a65.49,65.49,0,0,0-.58-6.77,6.5,6.5,0,1,1-4.94-10.73Zm-25.3,10.4a4,4,0,1,1,4-4A4,4,0,0,1,113.3,83.32Z"/><path class="cls-1" d="M21.4,133l-2.92-4.48A69.56,69.56,0,0,1,8.65,94.32H.1a73.94,73.94,0,0,0,21.6,52.3l6-6A71,71,0,0,1,21.4,133Z"/><path class="cls-1" d="M74.71,162.59,68.24,162l-7.16-1.55a69.85,69.85,0,0,1-30.51-16.92l-5.77,5.76a73.18,73.18,0,0,0,24,16,74.38,74.38,0,0,0,28.3,5.6v-8.25C76.3,162.65,75.5,162.63,74.71,162.59Z"/><path class="cls-1" d="M81.1,162.65V171a73.94,73.94,0,0,0,52.3-21.6l-6.24-6.24A69.78,69.78,0,0,1,81.1,162.65Z"/><path class="cls-1" d="M148.68,94.22a69.74,69.74,0,0,1-18.64,46l6.26,6.26a73.18,73.18,0,0,0,16-24,74.38,74.38,0,0,0,5.6-28.3Z"/><path class="cls-1" d="M27.84,44.46,21.6,38.22a73.18,73.18,0,0,0-16,24A74.38,74.38,0,0,0,0,90.52H8.66A69.8,69.8,0,0,1,27.84,44.46Z"/><path class="cls-1" d="M45.93,30.71A8.47,8.47,0,0,1,47.4,30a69.69,69.69,0,0,1,29.2-7.32V13.52a76.33,76.33,0,0,0-28.2,5.7,74.77,74.77,0,0,0-24,16l6.35,6.35A70,70,0,0,1,45.93,30.71Z"/><path class="cls-1" d="M68.8,146.62a9.18,9.18,0,0,1,8.2,5.1V97.12l-8.2,8.2A9.09,9.09,0,0,1,56,118.12L33.78,140.34a65.43,65.43,0,0,0,25.94,15A9.13,9.13,0,0,1,68.8,146.62Zm-20,1.2a4,4,0,1,1,4-4A4,4,0,0,1,48.8,147.82Zm14.6-21.5a4,4,0,1,1-4,4A4,4,0,0,1,63.4,126.32Z"/><path class="cls-1" d="M107.55,17.72a65.34,65.34,0,0,0-20.35-4V73.9l42.43-42.43a65.78,65.78,0,0,0-7.45-6.07,9.1,9.1,0,1,1-14.63-7.68ZM93.9,51a4,4,0,1,1,4-4A4,4,0,0,1,93.9,51Zm1.8-25.8a4,4,0,1,1,4-4A4,4,0,0,1,95.7,25.2Zm12.2,14.2a4,4,0,1,1-4-4A4,4,0,0,1,107.9,39.4Z"/><path class="cls-1" d="M115.27,16.07l3.85,2a70.29,70.29,0,0,1,13.73,10.15l6.55-6.55a74.77,74.77,0,0,0-24-16A76.33,76.33,0,0,0,87.2,0V9.13A69.7,69.7,0,0,1,115.27,16.07Z"/><path class="cls-1" d="M109.1,94.22a6.3,6.3,0,0,1,2.6,5.1,6.5,6.5,0,0,1-13,0,6.16,6.16,0,0,1,2.6-5.1H84l27.9,27.9a9.1,9.1,0,1,1,9.3,9.3l5.62,5.63a65.26,65.26,0,0,0,17.31-42.83Zm27,19a4,4,0,1,1,4-4A4,4,0,0,1,136.1,113.22Z"/><path class="cls-1" d="M76.6,87.42V27.19a65.62,65.62,0,0,0-20.49,3.94,9.09,9.09,0,1,1-14.5,7.51A64.56,64.56,0,0,0,34,44.79Zm-2.7-26.9a4,4,0,1,1-4-4A4,4,0,0,1,73.9,60.52Zm-5.8-29.8a4,4,0,1,1-4,4A4,4,0,0,1,68.1,30.72Zm-8.2,18.2a4,4,0,1,1-4,4A4,4,0,0,1,59.9,48.92Z"/></g></g></svg>