<svg xmlns="http://www.w3.org/2000/svg" viewBox="0 0 168.26 166.34"><defs><style>.cls-1{fill:#f2f2f4;}</style></defs><g id="Camada_2" data-name="Camada 2"><g id="Camada_1-2" data-name="Camada 1"><path class="cls-1" d="M146.09,10.25A72.36,72.36,0,0,0,126,0l-7.21,22.17a6.73,6.73,0,1,1-2.63,8.1L103.68,68.61l58.37-42.4A72.13,72.13,0,0,0,146.09,10.25ZM116.16,51.88a3.37,3.37,0,1,1,3.36-3.37A3.37,3.37,0,0,1,116.16,51.88Zm12.5-8.66A3.37,3.37,0,1,1,132,39.85,3.37,3.37,0,0,1,128.66,43.22ZM145,27.83a3.37,3.37,0,1,1,3.37-3.37A3.36,3.36,0,0,1,145,27.83Z"/><path class="cls-1" d="M24.68,42.72A72.1,72.1,0,0,0,10.9,85.12H83Zm15,32.72a3.37,3.37,0,1,1-6.74,0,4.07,4.07,0,0,1,.06-.61,7.22,7.22,0,1,1,5.93-1.48A3.36,3.36,0,0,1,39.69,75.44Zm15.87,3.37a3.37,3.37,0,1,1,3.36-3.37A3.37,3.37,0,0,1,55.56,78.81Z"/><path class="cls-1" d="M0,94.2a72.16,72.16,0,0,0,13.78,42.41L72.14,94.2ZM12.27,109a3.37,3.37,0,1,1,3.37-3.37A3.37,3.37,0,0,1,12.27,109Zm19.4,1.89a3.36,3.36,0,0,1-6.11-2.79,6.72,6.72,0,1,1,6.11,2.79Z"/><path class="cls-1" d="M61.11,110.67a6.73,6.73,0,1,1-8,6.62,6.54,6.54,0,0,1,.07-.89L27.69,135a72,72,0,0,0,36.08,26.2L86.06,92.54ZM56,149a6.74,6.74,0,1,1,6.73-6.73A6.74,6.74,0,0,1,56,149ZM71,115.36A3.37,3.37,0,1,1,74.31,112,3.36,3.36,0,0,1,71,115.36Z"/><path class="cls-1" d="M89.83,94.2,67.54,162.81a72.17,72.17,0,0,0,44.59,0ZM87.3,153.84a3.37,3.37,0,1,1,3.37-3.37A3.37,3.37,0,0,1,87.3,153.84Zm5.77-19.24a3.37,3.37,0,0,1-3.37-3.37,3.33,3.33,0,0,1,1.14-2.5,7.11,7.11,0,0,1-1.14.1,6.74,6.74,0,1,1,3.45-1,3.36,3.36,0,0,1-.08,6.72Z"/><path class="cls-1" d="M93.86,93l22.3,68.61a72.17,72.17,0,0,0,36.07-26.21Zm21.33,27.15a3.37,3.37,0,1,1-3.36,3.37A3.37,3.37,0,0,1,115.19,120.17Zm3.37,25a6.73,6.73,0,1,1,6.73-6.73A6.73,6.73,0,0,1,118.56,145.18Zm13.95-10.58a3.37,3.37,0,1,1,3.36-3.37A3.37,3.37,0,0,1,132.51,134.6Z"/><path class="cls-1" d="M152.23,89.5a6.74,6.74,0,1,1-9.63,0H96.12l13.81,10c0-.18,0-.35,0-.53a6.74,6.74,0,1,1,8.31,6.54l36.27,26.35a72.1,72.1,0,0,0,13.78-42.4Zm-13,23.94a3.37,3.37,0,1,1,3.37-3.37A3.37,3.37,0,0,1,139.24,113.44Z"/><path class="cls-1" d="M164.09,63.25a72.09,72.09,0,0,0-10.25-20.11L95.47,85.54h72.15A72.1,72.1,0,0,0,164.09,63.25ZM121,81.7a3.37,3.37,0,1,1,3.36-3.37A3.37,3.37,0,0,1,121,81.7ZM145.49,74A6.73,6.73,0,1,1,134,69.21a6.37,6.37,0,0,1-.08-1A6.74,6.74,0,1,1,145.41,73,6.37,6.37,0,0,1,145.49,74Zm9.14,8.66A3.37,3.37,0,1,1,158,79.29,3.37,3.37,0,0,1,154.63,82.66Z"/><path class="cls-1" d="M89.33,8.28A72.17,72.17,0,0,0,67,11.81l22.3,68.61,22.29-68.61A72.1,72.1,0,0,0,89.33,8.28ZM80.08,20.14a6.74,6.74,0,1,1,6.74,6.73A6.74,6.74,0,0,1,80.08,20.14ZM83,44.66A3.37,3.37,0,1,1,86.34,48,3.36,3.36,0,0,1,83,44.66Zm8.18,19.72A3.37,3.37,0,1,1,94.51,61,3.36,3.36,0,0,1,91.15,64.38ZM95,36.49a3.37,3.37,0,1,1,3.37-3.37A3.36,3.36,0,0,1,95,36.49Z"/><path class="cls-1" d="M40.54,49.42A6.73,6.73,0,1,1,48.37,55l37.8,27.06-5.39-16.2a4.17,4.17,0,0,1-.29.44,6.73,6.73,0,1,1-2.94-10.15L63.4,13.63A72.19,72.19,0,0,0,27.51,40.09ZM65,37.52a3.36,3.36,0,1,1-4.7.78A3.37,3.37,0,0,1,65,37.52Z"/></g></g></svg>