<svg xmlns="http://www.w3.org/2000/svg" viewBox="0 0 171.96 173.03"><defs><style>.cls-1{fill:none;stroke:#f2f2f4;stroke-miterlimit:10;stroke-width:2px;}.cls-2{fill:#f2f2f4;}</style></defs><g id="Camada_2" data-name="Camada 2"><g id="Camada_1-2" data-name="Camada 1"><path class="cls-1" d="M161.73,91.43h8.93a73.94,73.94,0,0,0-21.6-52.3l-6.42,6.43A69.73,69.73,0,0,1,161.73,91.43Z"/><path class="cls-2" d="M45,91.53a9.09,9.09,0,1,1,15-6.9,8.93,8.93,0,0,1-3.1,6.8h30L44.12,48.69a65.45,65.45,0,0,0-7.85,10.13,6.38,6.38,0,0,1,2.89-.69,6.5,6.5,0,1,1-6.47,7.11,65.26,65.26,0,0,0-6.41,26.29Zm-13.6-11.1a4,4,0,1,1-4,4A4,4,0,0,1,31.36,80.43Z"/><path class="cls-1" d="M137,141,94.16,98.13v61a65.34,65.34,0,0,0,26.36-6.6,4,4,0,1,1,5.74-3.58,2.85,2.85,0,0,1,0,.42A66,66,0,0,0,137,141Zm-31.15,12a4,4,0,1,1,4-4A4.08,4.08,0,0,1,105.86,152.93Zm2.4-17.9a6.5,6.5,0,1,1,6.5-6.5A6.49,6.49,0,0,1,108.26,135Z"/><path class="cls-2" d="M27.37,139.13q1.62,2,3.41,4L52.6,121.26a10.34,10.34,0,0,1-1.8-5.6,9.13,9.13,0,0,1,9.1-9.1,8.73,8.73,0,0,1,5.5,1.9l8.5-8.5H13.1a65.21,65.21,0,0,0,7.29,28.43,6.5,6.5,0,0,1,10.91,4.77A6.67,6.67,0,0,1,27.37,139.13ZM44.6,107.36a4,4,0,1,1-4,4A4,4,0,0,1,44.6,107.36Zm-16,13.8a6.5,6.5,0,1,1,6.5-6.5A6.49,6.49,0,0,1,28.6,121.16Z"/><path class="cls-1" d="M151.66,73.93a6.39,6.39,0,0,1,2.73.61,65.37,65.37,0,0,0-15-25.76l-9.76,9.75a8.66,8.66,0,0,1,.6,3.2,9.13,9.13,0,0,1-9.1,9.1,8.66,8.66,0,0,1-3.2-.6l-21.2,21.2h60.42a65.5,65.5,0,0,0-.57-6.77,6.5,6.5,0,1,1-5-10.73Zm-25.3,10.4a4,4,0,1,1,4-4A4,4,0,0,1,126.36,84.33Z"/><path class="cls-2" d="M21.3,138.61l-2.92-4.47A69.59,69.59,0,0,1,8.55,100H0a73.94,73.94,0,0,0,21.6,52.3l6-6A69.08,69.08,0,0,1,21.3,138.61Z"/><path class="cls-2" d="M87.78,163.6,81.3,163l-7.16-1.55a70,70,0,0,1-30.51-16.92l-5.77,5.76a73.18,73.18,0,0,0,24,16,74.38,74.38,0,0,0,28.3,5.6v-8.25C89.37,163.66,88.57,163.64,87.78,163.6Z"/><path class="cls-1" d="M94.16,163.66V172a73.94,73.94,0,0,0,52.3-21.6l-6.24-6.24A69.76,69.76,0,0,1,94.16,163.66Z"/><path class="cls-1" d="M161.75,95.23a69.75,69.75,0,0,1-18.65,46l6.26,6.26a73.18,73.18,0,0,0,16-24,74.38,74.38,0,0,0,5.6-28.3Z"/><path class="cls-2" d="M40.9,45.47l-6.24-6.24a73.18,73.18,0,0,0-16,24,74.38,74.38,0,0,0-5.6,28.3h8.67A69.79,69.79,0,0,1,40.9,45.47Z"/><path class="cls-2" d="M59,31.72A8.84,8.84,0,0,1,60.46,31a69.69,69.69,0,0,1,29.2-7.32V14.53a76.33,76.33,0,0,0-28.2,5.7,74.77,74.77,0,0,0-24,16l6.35,6.35A70.46,70.46,0,0,1,59,31.72Z"/><path class="cls-2" d="M81.86,147.63a9.18,9.18,0,0,1,8.2,5.1V98.13l-8.2,8.2a9.09,9.09,0,0,1-12.8,12.8L46.85,141.35a65.32,65.32,0,0,0,25.93,15A9.13,9.13,0,0,1,81.86,147.63Zm-20,1.2a4,4,0,1,1,4-4A4,4,0,0,1,61.86,148.83Zm14.6-21.5a4,4,0,1,1-4,4A4,4,0,0,1,76.46,127.33Z"/><path class="cls-1" d="M120.62,18.73a65.46,65.46,0,0,0-20.36-4V74.91L142.7,32.48a65.89,65.89,0,0,0-7.46-6.07,9.1,9.1,0,1,1-14.62-7.68ZM107,52a4,4,0,1,1,4-4A4,4,0,0,1,107,52Zm1.8-25.8a4,4,0,1,1,4-4A4,4,0,0,1,108.76,26.21ZM121,40.41a4,4,0,1,1-4-4A4,4,0,0,1,121,40.41Z"/><path class="cls-1" d="M128.34,17.08l3.84,2a70.29,70.29,0,0,1,13.73,10.15l6.55-6.55a74.77,74.77,0,0,0-24-16A76.33,76.33,0,0,0,100.26,1v9.13A69.79,69.79,0,0,1,128.34,17.08Z"/><path class="cls-1" d="M122.16,95.23a6.3,6.3,0,0,1,2.6,5.1,6.5,6.5,0,0,1-13,0,6.16,6.16,0,0,1,2.6-5.1H97.06l27.9,27.9a9.1,9.1,0,1,1,9.3,9.3l5.63,5.63A65.28,65.28,0,0,0,157.2,95.23Zm27,19a4,4,0,1,1,4-4A4,4,0,0,1,149.16,114.23Z"/><path class="cls-2" d="M89.66,88.43V28.2a65.56,65.56,0,0,0-20.48,3.94,9.09,9.09,0,1,1-14.51,7.51A64.45,64.45,0,0,0,47,45.8ZM87,61.53a4,4,0,1,1-4-4A4,4,0,0,1,87,61.53Zm-5.8-29.8a4,4,0,1,1-4,4A4,4,0,0,1,81.16,31.73ZM73,49.93a4,4,0,1,1-4,4A4,4,0,0,1,73,49.93Z"/></g></g></svg>