<svg xmlns="http://www.w3.org/2000/svg" viewBox="0 0 281 156.03"><defs><style>.cls-1{fill:#f39220;}</style></defs><g id="Camada_2" data-name="Camada 2"><g id="Camada_2-2" data-name="Camada 2"><path class="cls-1" d="M43.25,56.31,138,152l.11-135.37a136.73,136.73,0,0,0-94.9,39.64ZM123.71,81.2A11.31,11.31,0,1,1,112.4,92.51h0A11.3,11.3,0,0,1,123.69,81.2Zm-17.3-14.3a14.3,14.3,0,1,1-14.3-14.3h0a14.29,14.29,0,0,1,14.29,14.27Z"/><path class="cls-1" d="M270.78,104a136,136,0,0,0-29.2-44.13l-60.24,60.83a14,14,0,1,1-18.75,18.94L146.32,156H281A137.33,137.33,0,0,0,270.78,104Zm-34,40.4a11.31,11.31,0,1,1,11.31-11.31h0a11.31,11.31,0,0,1-11.31,11.31h0Z"/><path class="cls-1" d="M82.47,103.78A15.3,15.3,0,1,1,67.16,88.49h.69L39.46,59.83A136.62,136.62,0,0,0,0,156H71a11.3,11.3,0,1,1,13.62,0H134.7L82.45,103.25C82.46,103.43,82.47,103.61,82.47,103.78Z"/><path class="cls-1" d="M177.56,107.2a15.3,15.3,0,1,1,18.73-18.92l48.16-48.64A136.79,136.79,0,0,0,149.45,0l.19,135.37Zm-11.29-72a11.35,11.35,0,1,0,0,.08Z"/></g></g></svg>