<svg xmlns="http://www.w3.org/2000/svg" viewBox="0 0 137.24 155.99"><defs><style>.cls-1{fill:#f39220;}</style></defs><g id="Camada_2" data-name="Camada 2"><g id="Camada_2-2" data-name="Camada 2"><path class="cls-1" d="M126.82,103A138.91,138.91,0,0,0,97.07,58L35.7,120A14.22,14.22,0,1,1,16.57,139.3L0,156H137.24A139.8,139.8,0,0,0,126.82,103ZM92.15,144.1a11.52,11.52,0,1,1,11.52-11.52A11.52,11.52,0,0,1,92.15,144.1Z"/><path class="cls-1" d="M32.5,107.2A15.3,15.3,0,1,1,51.24,88.3L99.4,39.67a137.19,137.19,0,0,0-43.58-29.1A136.32,136.32,0,0,0,4.41,0l.2,135.37Zm-11.28-72A11.31,11.31,0,1,1,9.91,46.51h0A11.31,11.31,0,0,1,21.22,35.24Z"/></g></g></svg>