<svg xmlns="http://www.w3.org/2000/svg" viewBox="0 0 158.09 158.11"><defs><style>.cls-1{fill:#f2f2f4;}</style></defs><g id="Camada_2" data-name="Camada 2"><g id="Camada_1-2" data-name="Camada 1"><path class="cls-1" d="M109.69,136.69l-4.79-7.4A15.88,15.88,0,0,1,89.17,102L79,83.42,65,107.63a10.88,10.88,0,0,1-1.64,2.83L48.25,136.55A65.12,65.12,0,0,0,109.69,136.69ZM70,129.09a4,4,0,1,1-1.48,5.46A4,4,0,0,1,70,129.09Z"/><path class="cls-1" d="M139.3,44.39A69,69,0,0,1,148.53,77l9.56,0a79.17,79.17,0,0,0-37.53-65.24L115.77,20A69.14,69.14,0,0,1,139.3,44.39Z"/><path class="cls-1" d="M144.24,77a65.19,65.19,0,0,0-30.69-53.11l-30.72,53Zm-33-27.26a12.15,12.15,0,1,1-4.47,16.59A12.16,12.16,0,0,1,111.21,49.71Z"/><path class="cls-1" d="M18.79,113.72A69.26,69.26,0,0,1,9.55,81.13H0a79.17,79.17,0,0,0,37.53,65.23l4.79-8.26A69.32,69.32,0,0,1,18.79,113.72Z"/><path class="cls-1" d="M44.48,134.36,56,114.47a10.85,10.85,0,1,1,8.31-16.21,9.25,9.25,0,0,1,.51,1l10.44-18L31,81.16A7.2,7.2,0,0,1,32.47,83a7.35,7.35,0,1,1-11.21-1.86H14a65.22,65.22,0,0,0,30.5,53.22Z"/><path class="cls-1" d="M46.3,17.76a69.43,69.43,0,0,1,65.69.09l4.79-8.27a79,79,0,0,0-75.24-.09Z"/><path class="cls-1" d="M148.51,81.34a69.48,69.48,0,0,1-32.93,56.84l4.75,8.27a79,79,0,0,0,37.74-65.09Z"/><path class="cls-1" d="M9.57,76.77a69.46,69.46,0,0,1,33-56.84l-4.76-8.27A79,79,0,0,0,0,76.75Z"/><path class="cls-1" d="M14,76.77l61.26.1L66.6,62.16l-.09.06A11.45,11.45,0,0,1,55.09,42.37l.1,0L44.76,23.83A65.09,65.09,0,0,0,14,76.77ZM33.64,56.51a5.77,5.77,0,1,1-2.13,7.88A5.76,5.76,0,0,1,33.64,56.51Z"/><path class="cls-1" d="M111.79,140.35a69.46,69.46,0,0,1-65.69-.08l-4.79,8.26a79,79,0,0,0,75.24.09Z"/><path class="cls-1" d="M74.28,66.39l4.77,8.3,30.72-53a65.1,65.1,0,0,0-61.23,0L63.76,48.11M64.6,32a4,4,0,1,1,1.47-5.46A4,4,0,0,1,64.6,32Zm21,12a7.35,7.35,0,1,1,2.71-10A7.33,7.33,0,0,1,85.58,44Z"/><path class="cls-1" d="M144.22,81.34l-61.4-.1L86,86.7a15.88,15.88,0,0,1,15.65,27.21l11.86,20.6A65.11,65.11,0,0,0,144.22,81.34ZM131.4,105.12a5.08,5.08,0,1,1,1.87-6.93A5.08,5.08,0,0,1,131.4,105.12Z"/></g></g></svg>