<svg xmlns="http://www.w3.org/2000/svg" viewBox="0 0 175.6 147.72"><defs><style>.cls-1{fill:#f2f2f4;}</style></defs><g id="Camada_2" data-name="Camada 2"><g id="Camada_1-2" data-name="Camada 1"><path class="cls-1" d="M170,24.79l5.65-11.55A136.68,136.68,0,0,0,73,7.24L77.29,20A136.74,136.74,0,0,1,170,24.79Z"/><path class="cls-1" d="M78.59,23.78,116.1,134.84,168.24,28.29A136.72,136.72,0,0,0,78.59,23.78Zm24.85,33.46a14.29,14.29,0,1,1,12.5-25.7c8.16,4,9,14.15,6.6,19.1A14.34,14.34,0,0,1,103.44,57.24Zm21,28.1a11.29,11.29,0,1,1,15.1-5.2A11.32,11.32,0,0,1,124.4,85.34Z"/><path class="cls-1" d="M78.3,37.39,74.2,25.22A130.68,130.68,0,0,0,0,91.22l10.62,5.2A136.69,136.69,0,0,1,78.3,37.39Z"/><path class="cls-1" d="M75.4,125.72a9.38,9.38,0,0,1-2.8,1l43,21L92.9,80.52c-.2.1-.2.3-.3.4a14.58,14.58,0,1,1-6.7-19.5l.6.3-7-20.64A136.69,136.69,0,0,0,14.28,98.21L60.9,121a10.78,10.78,0,1,1,14.5,4.7Z"/></g></g></svg>